<svg xmlns="http://www.w3.org/2000/svg" width="390" height="844" viewBox="0 0 390 844" aria-label="Offline announcements" role="group"><defs><filter id="softShadow" x="-20%" y="-20%" width="140%" height="150%"><feDropShadow dx="0" dy="3" stdDeviation="5" flood-color="#1D1D1F" flood-opacity=".025"/></filter><filter id="shadow" x="-20%" y="-20%" width="140%" height="160%"><feDropShadow dx="0" dy="6" stdDeviation="10" flood-color="#1D1D1F" flood-opacity=".13"/></filter></defs><title>Offline announcements</title><rect x="0" y="0" width="390" height="844" rx="0" fill="#F5F5F7" stroke="none" /><text x="26" y="28" font-family="Segoe UI, -apple-system, BlinkMacSystemFont, sans-serif" font-size="13" font-weight="600" fill="#1D1D1F" text-anchor="start" >9:41</text><path d="M304 25v-4m5 4v-7m5 7v-10" stroke="#1D1D1F" stroke-width="3"/><g transform="translate(326 14) scale(0.6666666666666666)" fill="none" stroke="#1D1D1F" stroke-width="1.65" stroke-linecap="round" stroke-linejoin="round"><path d="M3 8a16 16 0 0 1 18 0M6 12a10 10 0 0 1 12 0M9 16a4 4 0 0 1 6 0M12 20h.01"/></g><rect x="350" y="17" width="22" height="10" rx="3" fill="none" stroke="#1D1D1F" /><rect x="352" y="19" width="17" height="6" rx="1" fill="#1D1D1F" stroke="none" /><rect x="373" y="20" width="2" height="4" rx="1" fill="#1D1D1F" stroke="none" /><rect x="24" y="63" width="34" height="34" rx="11" fill="#C92335" stroke="none" /><text x="41" y="87" font-family="Segoe UI, -apple-system, BlinkMacSystemFont, sans-serif" font-size="26" font-weight="650" fill="#FFFFFF" text-anchor="middle" >s</text><text x="69" y="83" font-family="Segoe UI, -apple-system, BlinkMacSystemFont, sans-serif" font-size="21" font-weight="650" fill="#1D1D1F" text-anchor="start" >samanvi</text><text x="70" y="95" font-family="Segoe UI, -apple-system, BlinkMacSystemFont, sans-serif" font-size="8" font-weight="600" fill="#68686E" text-anchor="start" >T R A V E L S</text><g><rect x="233" y="67" width="133" height="28" rx="14" fill="#EDF6F0" stroke="none" /><g transform="translate(243 74) scale(0.5833333333333334)" fill="none" stroke="#23734D" stroke-width="1.65" stroke-linecap="round" stroke-linejoin="round"><path d="m7 6 10 12-5 4V2l5 4L7 18"/></g><text x="306.5" y="85" font-family="Segoe UI, -apple-system, BlinkMacSystemFont, sans-serif" font-size="11" font-weight="600" fill="#23734D" text-anchor="middle" >Bus connected</text><rect x="228" y="57" width="142" height="48" fill="transparent" data-action="go:21" tabindex="0" role="button" aria-label="Manage bus speaker" class="hit"/></g><text x="24" y="135" font-family="Segoe UI, -apple-system, BlinkMacSystemFont, sans-serif" font-size="12" font-weight="500" fill="#68686E" text-anchor="start" >Your route audio library</text><text x="24" y="171" font-family="Segoe UI, -apple-system, BlinkMacSystemFont, sans-serif" font-size="29" font-weight="650" fill="#1D1D1F" text-anchor="start" letter-spacing="-.65">Announcements</text><g><rect x="24" y="194" width="342" height="164" rx="20" fill="#FFFFFF" stroke="#E7E7EB" filter="url(#softShadow)"/><text x="44" y="223" font-family="Segoe UI, -apple-system, BlinkMacSystemFont, sans-serif" font-size="10" font-weight="650" fill="#68686E" text-anchor="start" letter-spacing="1">CURRENT ROUTE</text><text x="346" y="223" font-family="Segoe UI, -apple-system, BlinkMacSystemFont, sans-serif" font-size="12" font-weight="600" fill="#C92335" text-anchor="end" >Change</text><text x="44" y="269" font-family="Segoe UI, -apple-system, BlinkMacSystemFont, sans-serif" font-size="19" font-weight="600" fill="#1D1D1F" text-anchor="start" >Hyderabad</text><text x="346" y="269" font-family="Segoe UI, -apple-system, BlinkMacSystemFont, sans-serif" font-size="19" font-weight="600" fill="#1D1D1F" text-anchor="end" >Bengaluru</text><text x="195" y="269" font-family="Segoe UI, -apple-system, BlinkMacSystemFont, sans-serif" font-size="19" font-weight="400" fill="#8A8A90" text-anchor="middle" >→</text><circle cx="49" cy="294" r="4" fill="#C92335"/><path d="M60 294H330" stroke="#E7E7EB" stroke-width="1.5" stroke-dasharray="3 4"/><circle cx="341" cy="294" r="4" fill="white" stroke="#C92335" stroke-width="1.5"/><g transform="translate(43 325) scale(0.5833333333333334)" fill="none" stroke="#68686E" stroke-width="1.65" stroke-linecap="round" stroke-linejoin="round"><path d="M12 3v12m-5-5 5 5 5-5M4 17v4h16v-4"/></g><text x="66" y="337" font-family="Segoe UI, -apple-system, BlinkMacSystemFont, sans-serif" font-size="12" font-weight="400" fill="#68686E" text-anchor="start" >5 stops · Saved on this device</text><rect x="24" y="194" width="342" height="164" fill="transparent" data-action="go:14" tabindex="0" role="button" aria-label="View route from Hyderabad to Bengaluru" class="hit"/></g><rect x="288" y="206" width="70" height="48" fill="transparent" data-action="go:9" tabindex="0" role="button" aria-label="Change route" class="hit"/><text x="24" y="397" font-family="Segoe UI, -apple-system, BlinkMacSystemFont, sans-serif" font-size="18" font-weight="600" fill="#1D1D1F" text-anchor="start" >Route stops</text><g><text x="366" y="397" font-family="Segoe UI, -apple-system, BlinkMacSystemFont, sans-serif" font-size="12" font-weight="600" fill="#C92335" text-anchor="end" >View all 5</text><rect x="284" y="372" width="82" height="44" fill="transparent" data-action="go:14" tabindex="0" role="button" aria-label="View all route stops" class="hit"/></g><rect x="24" y="416" width="342" height="312" rx="17" fill="#FFFFFF" stroke="#E7E7EB" /><path d="M44 493H346" fill="none" stroke="#E7E7EB" stroke-width="1"/><text x="44" y="447" font-family="Segoe UI, -apple-system, BlinkMacSystemFont, sans-serif" font-size="15" font-weight="600" fill="#1D1D1F" text-anchor="start" >Hyderabad</text><text x="44" y="470" font-family="Segoe UI, -apple-system, BlinkMacSystemFont, sans-serif" font-size="12" font-weight="400" fill="#68686E" text-anchor="start" >Departure · MP3 · 0:12</text><rect x="304" y="430" width="44" height="48" rx="15" fill="#FCF0F2" stroke="none" /><g transform="translate(316 443) scale(0.8333333333333334)" fill="none" stroke="#C92335" stroke-width="1.65" stroke-linecap="round" stroke-linejoin="round"><path d="m9 5 10 7-10 7Z"/></g><rect x="24" y="416" width="342" height="77" fill="transparent" data-action="play:Hyderabad" tabindex="0" role="button" aria-label="Play Hyderabad" class="hit"/><path d="M44 571H346" fill="none" stroke="#E7E7EB" stroke-width="1"/><text x="44" y="525" font-family="Segoe UI, -apple-system, BlinkMacSystemFont, sans-serif" font-size="15" font-weight="600" fill="#1D1D1F" text-anchor="start" >Jadcherla</text><text x="44" y="548" font-family="Segoe UI, -apple-system, BlinkMacSystemFont, sans-serif" font-size="12" font-weight="400" fill="#68686E" text-anchor="start" >Arrival · MP3 · 0:12</text><rect x="304" y="508" width="44" height="48" rx="15" fill="#FCF0F2" stroke="none" /><g transform="translate(316 521) scale(0.8333333333333334)" fill="none" stroke="#C92335" stroke-width="1.65" stroke-linecap="round" stroke-linejoin="round"><path d="m9 5 10 7-10 7Z"/></g><rect x="24" y="494" width="342" height="77" fill="transparent" data-action="play:Jadcherla" tabindex="0" role="button" aria-label="Play Jadcherla" class="hit"/><path d="M44 649H346" fill="none" stroke="#E7E7EB" stroke-width="1"/><text x="44" y="603" font-family="Segoe UI, -apple-system, BlinkMacSystemFont, sans-serif" font-size="15" font-weight="600" fill="#1D1D1F" text-anchor="start" >Kurnool</text><text x="44" y="626" font-family="Segoe UI, -apple-system, BlinkMacSystemFont, sans-serif" font-size="12" font-weight="400" fill="#68686E" text-anchor="start" >Arrival · MP3 · 0:12</text><rect x="304" y="586" width="44" height="48" rx="15" fill="#FCF0F2" stroke="none" /><g transform="translate(316 599) scale(0.8333333333333334)" fill="none" stroke="#C92335" stroke-width="1.65" stroke-linecap="round" stroke-linejoin="round"><path d="m9 5 10 7-10 7Z"/></g><rect x="24" y="572" width="342" height="77" fill="transparent" data-action="play:Kurnool" tabindex="0" role="button" aria-label="Play Kurnool" class="hit"/><text x="44" y="681" font-family="Segoe UI, -apple-system, BlinkMacSystemFont, sans-serif" font-size="15" font-weight="600" fill="#1D1D1F" text-anchor="start" >Anantapur</text><text x="44" y="704" font-family="Segoe UI, -apple-system, BlinkMacSystemFont, sans-serif" font-size="12" font-weight="400" fill="#68686E" text-anchor="start" >Arrival · MP3 · 0:12</text><rect x="304" y="664" width="44" height="48" rx="15" fill="#FCF0F2" stroke="none" /><g transform="translate(316 677) scale(0.8333333333333334)" fill="none" stroke="#C92335" stroke-width="1.65" stroke-linecap="round" stroke-linejoin="round"><path d="m9 5 10 7-10 7Z"/></g><rect x="24" y="650" width="342" height="77" fill="transparent" data-action="play:Anantapur" tabindex="0" role="button" aria-label="Play Anantapur" class="hit"/><rect x="0" y="764" width="390" height="80" rx="0" fill="#FFFFFF" stroke="none" /><path d="M0 764H390" fill="none" stroke="#E7E7EB" stroke-width="1"/><g><g transform="translate(38 781) scale(0.875)" fill="none" stroke="#68686E" stroke-width="1.65" stroke-linecap="round" stroke-linejoin="round"><path d="M3 10 12 3l9 7M5 9v12h5v-7h4v7h5V9"/></g><text x="48" y="818" font-family="Segoe UI, -apple-system, BlinkMacSystemFont, sans-serif" font-size="10" font-weight="600" fill="#68686E" text-anchor="middle" >Home</text><rect x="0" y="768" width="96" height="61" fill="transparent" data-action="go:31" tabindex="0" role="button" aria-label="Home" class="hit"/></g><g><g transform="translate(136 781) scale(0.875)" fill="none" stroke="#C92335" stroke-width="1.65" stroke-linecap="round" stroke-linejoin="round"><path d="M6 3a3 3 0 1 0 0 6 3 3 0 0 0 0-6Zm12 12a3 3 0 1 0 0 6 3 3 0 0 0 0-6ZM9 6h6a4 4 0 0 1 0 8H9"/></g><text x="146" y="818" font-family="Segoe UI, -apple-system, BlinkMacSystemFont, sans-serif" font-size="10" font-weight="600" fill="#C92335" text-anchor="middle" >Announcements</text><rect x="98" y="768" width="96" height="61" fill="transparent" data-action="go:12" tabindex="0" role="button" aria-label="Announcements" class="hit"/></g><g><g transform="translate(234 781) scale(0.875)" fill="none" stroke="#68686E" stroke-width="1.65" stroke-linecap="round" stroke-linejoin="round"><path d="M6 3h9l4 4v14H6ZM14 3v5h5M9 12h7M9 16h5"/></g><text x="244" y="818" font-family="Segoe UI, -apple-system, BlinkMacSystemFont, sans-serif" font-size="10" font-weight="600" fill="#68686E" text-anchor="middle" >Records</text><rect x="196" y="768" width="96" height="61" fill="transparent" data-action="go:27" tabindex="0" role="button" aria-label="Records" class="hit"/></g><g><g transform="translate(332 781) scale(0.875)" fill="none" stroke="#68686E" stroke-width="1.65" stroke-linecap="round" stroke-linejoin="round"><path d="M12 8a4 4 0 1 0 0 8 4 4 0 0 0 0-8ZM9 3h6l1 3 3 1 2 5-2 5-3 1-1 3H9l-1-3-3-1-2-5 2-5 3-1Z"/></g><text x="342" y="818" font-family="Segoe UI, -apple-system, BlinkMacSystemFont, sans-serif" font-size="10" font-weight="600" fill="#68686E" text-anchor="middle" >Settings</text><rect x="294" y="768" width="96" height="61" fill="transparent" data-action="go:25" tabindex="0" role="button" aria-label="Settings" class="hit"/></g><rect x="136" y="835" width="118" height="4" rx="2" fill="#1D1D1F" stroke="none" /><rect x="20" y="683" width="350" height="74" rx="15" fill="#252528" stroke="none" filter="url(#shadow)"/><g transform="translate(35 700) scale(0.875)" fill="none" stroke="#D5DBE2" stroke-width="1.65" stroke-linecap="round" stroke-linejoin="round"><path d="M4 9h4l6-5v16l-6-5H4ZM18 8c3 2 3 6 0 8"/></g><text x="67" y="707" font-family="Segoe UI, -apple-system, BlinkMacSystemFont, sans-serif" font-size="13" font-weight="600" fill="#FFFFFF" text-anchor="start" >You’re offline</text><text x="67" y="730" font-family="Segoe UI, -apple-system, BlinkMacSystemFont, sans-serif" font-size="12" font-weight="400" fill="#DBDBE0" text-anchor="start" >Saved MP3s are still available.</text></svg>