<svg xmlns="http://www.w3.org/2000/svg" width="390" height="844" viewBox="0 0 390 844" aria-label="Audio library" role="group"><defs><filter id="softShadow" x="-20%" y="-20%" width="140%" height="150%"><feDropShadow dx="0" dy="3" stdDeviation="5" flood-color="#1D1D1F" flood-opacity=".025"/></filter><filter id="shadow" x="-20%" y="-20%" width="140%" height="160%"><feDropShadow dx="0" dy="6" stdDeviation="10" flood-color="#1D1D1F" flood-opacity=".13"/></filter></defs><title>Audio library</title><rect x="0" y="0" width="390" height="844" rx="0" fill="#F5F5F7" stroke="none" /><text x="26" y="28" font-family="Segoe UI, -apple-system, BlinkMacSystemFont, sans-serif" font-size="13" font-weight="600" fill="#1D1D1F" text-anchor="start" >9:41</text><path d="M304 25v-4m5 4v-7m5 7v-10" stroke="#1D1D1F" stroke-width="3"/><g transform="translate(326 14) scale(0.6666666666666666)" fill="none" stroke="#1D1D1F" stroke-width="1.65" stroke-linecap="round" stroke-linejoin="round"><path d="M3 8a16 16 0 0 1 18 0M6 12a10 10 0 0 1 12 0M9 16a4 4 0 0 1 6 0M12 20h.01"/></g><rect x="350" y="17" width="22" height="10" rx="3" fill="none" stroke="#1D1D1F" /><rect x="352" y="19" width="17" height="6" rx="1" fill="#1D1D1F" stroke="none" /><rect x="373" y="20" width="2" height="4" rx="1" fill="#1D1D1F" stroke="none" /><g><g transform="translate(21 64) scale(0.9166666666666666)" fill="none" stroke="#1D1D1F" stroke-width="1.65" stroke-linecap="round" stroke-linejoin="round"><path d="m14 5-7 7 7 7"/></g><rect x="12" y="50" width="52" height="48" fill="transparent" data-action="go:25" tabindex="0" role="button" aria-label="Go back" class="hit"/></g><text x="195" y="81" font-family="Segoe UI, -apple-system, BlinkMacSystemFont, sans-serif" font-size="16" font-weight="600" fill="#1D1D1F" text-anchor="middle" >Audio library</text><path d="M24 108H366" fill="none" stroke="#E7E7EB" stroke-width="1"/><text x="24" y="149" font-family="Segoe UI, -apple-system, BlinkMacSystemFont, sans-serif" font-size="12" font-weight="500" fill="#68686E" text-anchor="start" >ON THIS PHONE</text><text x="24" y="185" font-family="Segoe UI, -apple-system, BlinkMacSystemFont, sans-serif" font-size="29" font-weight="650" fill="#1D1D1F" text-anchor="start" letter-spacing="-.65">Saved announcements</text><rect x="24" y="208" width="342" height="40" rx="10" fill="#EDF6F0" stroke="none" /><g transform="translate(37 220) scale(0.6666666666666666)" fill="none" stroke="#23734D" stroke-width="1.65" stroke-linecap="round" stroke-linejoin="round"><path d="m5 12 4 4 10-10"/></g><text x="62" y="233" font-family="Segoe UI, -apple-system, BlinkMacSystemFont, sans-serif" font-size="12" font-weight="500" fill="#23734D" text-anchor="start" >Saved MP3 files work without internet.</text><text x="24" y="293" font-family="Segoe UI, -apple-system, BlinkMacSystemFont, sans-serif" font-size="18" font-weight="600" fill="#1D1D1F" text-anchor="start" >Hyderabad → Bengaluru</text><text x="24" y="319" font-family="Segoe UI, -apple-system, BlinkMacSystemFont, sans-serif" font-size="12" font-weight="400" fill="#68686E" text-anchor="start" >7 of 8 files available · 1 needs attention</text><rect x="24" y="346" width="342" height="312" rx="18" fill="#FFFFFF" stroke="#E7E7EB" /><path d="M44 423H346" fill="none" stroke="#E7E7EB" stroke-width="1"/><text x="44" y="377" font-family="Segoe UI, -apple-system, BlinkMacSystemFont, sans-serif" font-size="15" font-weight="600" fill="#1D1D1F" text-anchor="start" >Lunch break</text><text x="44" y="400" font-family="Segoe UI, -apple-system, BlinkMacSystemFont, sans-serif" font-size="12" font-weight="400" fill="#68686E" text-anchor="start" >MP3 · Available offline</text><rect x="304" y="360" width="44" height="48" rx="15" fill="#FCF0F2" stroke="none" /><g transform="translate(316 373) scale(0.8333333333333334)" fill="none" stroke="#C92335" stroke-width="1.65" stroke-linecap="round" stroke-linejoin="round"><path d="m9 5 10 7-10 7Z"/></g><rect x="24" y="346" width="342" height="77" fill="transparent" data-action="play:Lunch break" tabindex="0" role="button" aria-label="Play Lunch break" class="hit"/><path d="M44 501H346" fill="none" stroke="#E7E7EB" stroke-width="1"/><text x="44" y="455" font-family="Segoe UI, -apple-system, BlinkMacSystemFont, sans-serif" font-size="15" font-weight="600" fill="#1D1D1F" text-anchor="start" >Dinner break</text><text x="44" y="478" font-family="Segoe UI, -apple-system, BlinkMacSystemFont, sans-serif" font-size="12" font-weight="400" fill="#68686E" text-anchor="start" >MP3 · Available offline</text><rect x="304" y="438" width="44" height="48" rx="15" fill="#FCF0F2" stroke="none" /><g transform="translate(316 451) scale(0.8333333333333334)" fill="none" stroke="#C92335" stroke-width="1.65" stroke-linecap="round" stroke-linejoin="round"><path d="m9 5 10 7-10 7Z"/></g><rect x="24" y="424" width="342" height="77" fill="transparent" data-action="play:Dinner break" tabindex="0" role="button" aria-label="Play Dinner break" class="hit"/><path d="M44 579H346" fill="none" stroke="#E7E7EB" stroke-width="1"/><text x="44" y="533" font-family="Segoe UI, -apple-system, BlinkMacSystemFont, sans-serif" font-size="15" font-weight="600" fill="#1D1D1F" text-anchor="start" >Toilet break</text><text x="44" y="556" font-family="Segoe UI, -apple-system, BlinkMacSystemFont, sans-serif" font-size="12" font-weight="400" fill="#68686E" text-anchor="start" >MP3 · Available offline</text><rect x="304" y="516" width="44" height="48" rx="15" fill="#FCF0F2" stroke="none" /><g transform="translate(316 529) scale(0.8333333333333334)" fill="none" stroke="#C92335" stroke-width="1.65" stroke-linecap="round" stroke-linejoin="round"><path d="m9 5 10 7-10 7Z"/></g><rect x="24" y="502" width="342" height="77" fill="transparent" data-action="play:Toilet break" tabindex="0" role="button" aria-label="Play Toilet break" class="hit"/><text x="44" y="611" font-family="Segoe UI, -apple-system, BlinkMacSystemFont, sans-serif" font-size="15" font-weight="600" fill="#1D1D1F" text-anchor="start" >Kurnool</text><text x="44" y="634" font-family="Segoe UI, -apple-system, BlinkMacSystemFont, sans-serif" font-size="12" font-weight="400" fill="#C92335" text-anchor="start" >MP3 · Missing file</text><rect x="304" y="594" width="44" height="48" rx="15" fill="#F5F5F7" stroke="none" /><g transform="translate(316 607) scale(0.8333333333333334)" fill="none" stroke="#68686E" stroke-width="1.65" stroke-linecap="round" stroke-linejoin="round"><path d="m12 3 10 18H2ZM12 9v5M12 17v1"/></g><rect x="24" y="580" width="342" height="77" fill="transparent" data-action="go:19" tabindex="0" role="button" aria-label="View missing audio" class="hit"/><text x="24" y="704" font-family="Segoe UI, -apple-system, BlinkMacSystemFont, sans-serif" font-size="12" font-weight="400" fill="#68686E" text-anchor="start" >Audio files are managed by your administrator.</text><text x="24" y="725" font-family="Segoe UI, -apple-system, BlinkMacSystemFont, sans-serif" font-size="12" font-weight="400" fill="#68686E" text-anchor="start" >Ask them to restore any missing announcements.</text></svg>